<?xml version="1.0" encoding="utf-8"?>
<!-- Generator: Adobe Illustrator 17.0.0, SVG Export Plug-In . SVG Version: 6.00 Build 0)  -->
<!DOCTYPE svg PUBLIC "-//W3C//DTD SVG 1.1//EN" "http://www.w3.org/Graphics/SVG/1.1/DTD/svg11.dtd">
<svg version="1.1" xmlns="http://www.w3.org/2000/svg" xmlns:xlink="http://www.w3.org/1999/xlink" x="0px" y="0px"
	 width="417.899px" height="130px" viewBox="0 0 417.899 130" enable-background="new 0 0 417.899 130" xml:space="preserve">
<g id="MLB">
	<g id="mlb_logo">
		<path id="Shape" fill="#FFFFFF" d="M185.339,20.286H92.112c-5.022,0-9.099,6.005-9.099,13.404v61.422c0,7.4,4.077,13.4,9.099,13.4
			h93.227c5.028,0,9.1-6,9.1-13.4V33.69C194.439,26.291,190.367,20.286,185.339,20.286"/>
		<path id="right" fill="#CC0000" d="M145.513,20.28l24.561,40.991l2.248,0.275l1.304,1.884v1.767l1.596,0.289l1.41,1.965
			l0.013,1.685l1.583,0.281c0,0,1.596,1.687,1.596,1.777v3.84c0,0,3.459,3.177,6.558,4.391c2.155,0.842,2.421,4.299,3.645,6.172
			c1.689,2.622,3.938,3.743,3.472,5.244c-1.117,4.023-5.241,10.758-9.086,11.138c0,0-9.538,0.011-15.165,0.011l0.013,6.48h18.956
			c5.481,0,9.95-4.478,9.95-9.944V30.214c0-2.659-1.038-5.152-2.913-7.022c-1.889-1.882-4.377-2.912-7.037-2.912L145.513,20.28
			L145.513,20.28z"/>
		<path id="left" fill="#000088" d="M35.434,20.27c-2.66,0-5.153,1.039-7.025,2.912c-1.887,1.88-2.915,4.374-2.915,7.033l0,68.312
			c0,2.658,1.027,5.159,2.918,7.029c1.873,1.882,4.366,2.913,7.026,2.913h62.045c-1.567-2.595-3.307-5.545-3.838-6.441h-7.403
			c-0.012-18.34,6.255-28.542,13.659-30.518c1.018-0.197,0.545-5.239-0.761-6.738c0,0-3.557,0.094-4.31-0.101
			c-0.938-0.278-0.286-1.205-0.286-1.205l3.465-7.488l-0.462-2.069L84.711,53.92c-0.186,0,10.582-7.398,10.582-7.398
			c0.548-19.46,20.481-20.97,32.548-12.935c7.134,4.773,7.7,14.134,7.145,20.686c-0.093,0.38-1.881,0.102-1.881,0.102
			s-1.205,7.108,1.971,7.108h14.03c5.719-0.193,11.243,3.636,11.243,3.636l1.41-4.866l-30.806-39.981l-0.003-0.003L35.434,20.27
			L35.434,20.27z"/>
		<path id="ball" fill="#FFFFFF" d="M46.033,80.744c-3.763,0.019-6.822,3.069-6.812,6.839c0,3.774,3.049,6.83,6.82,6.83
			c3.773-0.008,6.83-3.066,6.83-6.848C52.871,83.813,49.795,80.744,46.033,80.744"/>
	</g>
	<path id="text" display="none" fill="#333333" d="M239.461,28.399c-1.04,0-1.848,0.241-2.426,0.603
		c-0.578,0.36-0.955,0.84-1.215,1.321c-0.318,0.552-0.493,1.202-0.52,1.9v10.405c0.027,0.72,0.202,1.368,0.52,1.922
		c0.26,0.48,0.636,0.939,1.215,1.299c0.578,0.384,1.386,0.599,2.426,0.599s1.819-0.215,2.397-0.599
		c0.578-0.36,0.984-0.819,1.244-1.299c0.317-0.554,0.491-1.202,0.52-1.922V32.223c-0.029-0.698-0.204-1.347-0.52-1.9
		c-0.26-0.481-0.666-0.961-1.244-1.321C241.28,28.64,240.502,28.399,239.461,28.399z M355.013,28.399
		c-1.473,0.023-2.484,0.577-3.148,1.347c-0.666,0.792-0.924,1.824-0.924,2.785c0,0.481,0.084,0.963,0.258,1.42
		c0.317,0.937,0.84,1.85,1.533,2.738c0.693,0.89,1.355,1.709,1.963,2.43c0.289,0.36,0.551,0.72,0.811,1.058
		c0.462,0.696,0.808,1.37,0.808,1.947c0,1.129-0.347,1.947-1.271,1.947c-0.666,0-1.01-0.386-1.212-0.963
		c-0.233-0.552-0.263-1.299-0.263-2.045l-3.063,0.244c0,1.321,0.147,2.594,0.782,3.555c0.636,0.961,1.761,1.586,3.756,1.586
		c1.704,0,2.774-0.53,3.438-1.347c0.666-0.816,0.897-1.921,0.897-3.098c0-0.961-0.375-1.874-0.924-2.764
		c-0.549-0.888-1.271-1.804-1.993-2.693c-0.607-0.746-1.213-1.443-1.677-2.115c-0.462-0.674-0.782-1.299-0.782-1.9
		c0-1.034,0.26-1.73,1.069-1.754c0.491,0,0.811,0.338,1.013,0.817c0.202,0.504,0.231,1.155,0.231,1.732l3.063-0.239
		c0-0.985-0.173-2.166-0.779-3.127C357.99,29.022,356.891,28.375,355.013,28.399L355.013,28.399z M296.296,28.401
		c-1.04,0-1.848,0.239-2.426,0.601c-0.577,0.36-0.955,0.84-1.215,1.321c-0.317,0.552-0.491,1.202-0.52,1.9v10.405
		c-0.029,0.72,0.087,1.368,0.347,1.922c0.231,0.48,0.578,0.939,1.098,1.299c0.52,0.384,1.213,0.599,2.224,0.599
		s1.851-0.433,2.43-1.034l0.375,0.842h1.85V37.46h-4.365v2.186h1.244v3.197c0,0.265-0.031,0.481-0.116,0.649
		c-0.116,0.36-0.376,0.651-0.926,0.651c-0.26,0-0.46-0.073-0.606-0.194c-0.289-0.263-0.435-0.603-0.435-1.107v-10.62
		c0-0.241,0.029-0.459,0.116-0.651c0.116-0.312,0.375-0.649,0.924-0.649c0.26,0,0.489,0.073,0.635,0.192
		c0.289,0.289,0.407,0.627,0.407,1.108v2.712h3.121v-2.712c-0.029-0.698-0.204-1.347-0.522-1.9c-0.26-0.481-0.666-0.961-1.242-1.321
		C298.117,28.64,297.336,28.401,296.296,28.401L296.296,28.401z M202.994,28.591v17.664h2.89V34.408h0.173l0.117,0.745l1.991,11.103
		h0.003h1.328l1.994-11.103l0.114-0.745h0.173v11.847h2.89V28.591h-3.814l-1.849,8.077l-0.145,0.937h-0.057l-0.145-0.937
		l-1.849-8.077H202.994z M219.897,28.591l-3.208,17.664h3.035l0.577-3.602h3.005l0.58,3.602h3.032l-3.205-17.664H219.897
		L219.897,28.591z M229.635,28.591v13.989c0,0.409-0.086,0.696-0.258,0.864c-0.347,0.384-0.811,0.504-1.417,0.433v2.546
		c1.848,0.095,3.063-0.289,3.785-0.937c0.724-0.649,1.01-1.538,1.01-2.499V28.591H229.635L229.635,28.591z M246.306,28.591v17.664
		h3.124v-7.449h0.835l1.619,7.449h3.121l-1.995-8.557c1.186-0.672,1.737-2.258,1.737-4.013c0-3.341-1.59-5.095-5.316-5.095H246.306
		L246.306,28.591z M262.344,28.591v17.664h7.253v-2.404h-4.134V28.591H262.344L262.344,28.591z M271.446,28.591v17.664h7.137v-2.669
		h-4.018v-4.853h2.89v-2.837h-2.89V31.26h4.018v-2.669H271.446z M283.294,28.591l-3.21,17.664h3.035l0.578-3.602h3.003l0.58,3.602
		h3.032l-3.205-17.664H283.294z M303.289,28.591v14.036c0.029,0.72,0.2,1.368,0.519,1.922c0.26,0.48,0.636,0.939,1.215,1.299
		c0.577,0.384,1.386,0.599,2.426,0.599s1.822-0.215,2.4-0.599c0.578-0.36,0.981-0.819,1.241-1.299
		c0.317-0.554,0.491-1.202,0.52-1.922V28.591h-3.121v14.036c0,0.265-0.029,0.481-0.116,0.649c-0.116,0.362-0.376,0.648-0.924,0.648
		c-0.26,0-0.462-0.073-0.606-0.192c-0.289-0.265-0.433-0.599-0.433-1.105V28.591H303.289L303.289,28.591z M314.471,28.591v17.664
		h7.137v-2.669h-4.016v-4.853h2.89v-2.837h-2.89V31.26h4.016v-2.669H314.471z M328.95,28.591v17.664h3.843
		c1.85-0.071,3.092-0.674,3.814-1.586c0.724-0.914,1.013-2.089,1.013-3.412c0-0.888-0.115-1.611-0.346-2.163
		c-0.464-1.131-1.04-1.801-1.821-2.161c0.722-0.552,1.212-1.035,1.53-1.612s0.404-1.2,0.404-2.042c0-1.754-0.488-2.909-1.443-3.654
		c-0.953-0.745-2.401-1.034-4.25-1.034H328.95L328.95,28.591z M342.379,28.591l-3.207,17.664h3.032l0.578-3.602h3.006l0.577,3.602
		h3.035l-3.208-17.664H342.379z M361.631,28.591v17.664h7.143v-2.669h-4.022v-4.853h2.892v-2.837h-2.892V31.26h4.022v-2.669H361.631
		z M371.068,28.591v17.664h3.845c1.858-0.071,3.085-0.674,3.812-1.586c0.727-0.914,1.018-2.089,1.018-3.412
		c0-0.888-0.113-1.611-0.355-2.163c-0.452-1.131-1.034-1.801-1.809-2.161c0.711-0.552,1.212-1.035,1.518-1.612
		c0.323-0.577,0.42-1.2,0.42-2.042c0-1.754-0.501-2.909-1.454-3.654s-2.391-1.034-4.249-1.034H371.068L371.068,28.591z
		 M384.508,28.591l-3.199,17.664h3.021l0.582-3.602h3.005l0.582,3.602h3.037l-3.215-17.664H384.508z M393.554,28.591v17.664h7.253
		v-2.404h-4.135V28.591H393.554L393.554,28.591z M402.665,28.591v17.664h7.253v-2.404h-4.135V28.591H402.665L402.665,28.591z
		 M239.461,30.922c0.26,0,0.489,0.073,0.633,0.192c0.289,0.289,0.404,0.627,0.404,1.108v10.405c0,0.265-0.026,0.481-0.113,0.649
		c-0.116,0.362-0.375,0.648-0.924,0.648c-0.26,0-0.465-0.073-0.609-0.192c-0.289-0.265-0.433-0.599-0.433-1.105V32.223
		c0-0.241,0.031-0.459,0.116-0.651C238.652,31.26,238.912,30.922,239.461,30.922z M249.428,31.161c0.433,0,1.013,0.026,1.476,0.363
		c0.462,0.336,0.835,1.01,0.835,2.26c0,1.249-0.373,1.896-0.835,2.232c-0.462,0.338-1.04,0.386-1.473,0.386h-0.003V31.161
		L249.428,31.161z M332.072,31.161c0.26,0,0.867-0.023,1.388,0.267c0.52,0.288,0.924,0.866,0.924,2.09
		c0,1.226-0.404,1.804-0.924,2.092c-0.52,0.289-1.128,0.262-1.388,0.262V31.161L332.072,31.161z M374.187,31.161
		c0.275,0,0.872-0.023,1.389,0.267c0.517,0.288,0.921,0.866,0.921,2.09c0,1.226-0.404,1.804-0.921,2.092
		c-0.517,0.289-1.115,0.262-1.389,0.262V31.161L374.187,31.161z M221.72,33.878h0.174l0.084,0.457l0.897,5.575h-2.139l0.897-5.575
		L221.72,33.878z M285.114,33.878h0.174l0.086,0.457l0.895,5.575h-2.139l0.897-5.575L285.114,33.878z M344.201,33.878h0.173
		l0.086,0.457l0.895,5.575h-2.136l0.897-5.575L344.201,33.878z M386.335,33.878h0.162l0.097,0.457l0.888,5.575h-2.132l0.888-5.575
		L386.335,33.878z M332.072,38.254c0.26,0,0.867-0.05,1.388,0.262c0.52,0.313,0.924,1.01,0.924,2.452
		c0,1.441-0.404,2.139-0.924,2.451c-0.52,0.313-1.128,0.265-1.388,0.265V38.254z M374.187,38.254c0.275,0,0.872-0.05,1.389,0.262
		c0.517,0.313,0.921,1.01,0.921,2.452c0,1.441-0.404,2.139-0.921,2.451c-0.517,0.313-1.115,0.265-1.389,0.265V38.254z"/>
</g>
<g id="BASEBALL">
	<g>
		<path fill="#333333" d="M271.503,64.392c-3.225,0.049-5.439,1.262-6.892,2.949c-1.457,1.733-2.023,3.992-2.023,6.096
			c0,1.054,0.184,2.108,0.566,3.108c0.693,2.051,1.839,4.049,3.356,5.994c1.517,1.948,2.967,3.741,4.297,5.318
			c0.633,0.789,1.206,1.577,1.775,2.316c1.011,1.524,1.768,2.999,1.768,4.261c0,2.472-0.76,4.261-2.783,4.261
			c-1.457,0-2.21-0.845-2.652-2.108c-0.509-1.209-0.576-2.843-0.576-4.477l-6.705,0.534c0,2.893,0.322,5.679,1.712,7.783
			c1.393,2.104,3.854,3.473,8.222,3.473c3.731,0,6.072-1.16,7.525-2.949c1.457-1.786,1.963-4.205,1.963-6.782
			c0-2.104-0.82-4.102-2.023-6.05c-1.202-1.945-2.783-3.95-4.364-5.895c-1.33-1.634-2.656-3.158-3.671-4.629
			c-1.011-1.475-1.712-2.843-1.712-4.159c0-2.263,0.569-3.787,2.341-3.84c1.075,0,1.775,0.739,2.217,1.789
			c0.442,1.103,0.506,2.528,0.506,3.791l6.705-0.523c0-2.157-0.378-4.742-1.704-6.846C278.021,65.757,275.616,64.339,271.503,64.392
			L271.503,64.392z"/>
		<path fill="#333333" d="M214.45,64.812v38.669h8.413c4.049-0.156,6.768-1.475,8.349-3.473c1.584-2.001,2.217-4.572,2.217-7.469
			c0-1.945-0.251-3.526-0.757-4.735c-1.015-2.475-2.277-3.943-3.985-4.731c1.581-1.209,2.652-2.267,3.349-3.529
			c0.697-1.262,0.884-2.627,0.884-4.47c0-3.84-1.068-6.369-3.158-7.999c-2.086-1.63-5.255-2.263-9.304-2.263H214.45L214.45,64.812z"
			/>
		<polygon fill="#333333" points="243.847,64.812 236.827,103.481 243.465,103.481 244.731,95.595 251.312,95.595 252.574,103.481 
			259.219,103.481 252.196,64.812 		"/>
		<polygon fill="#333333" points="285.991,64.812 285.991,103.481 301.628,103.481 301.628,97.639 292.823,97.639 292.823,87.016 
			299.153,87.016 299.153,80.807 292.823,80.807 292.823,70.654 301.628,70.654 301.628,64.812 		"/>
		<path fill="#333333" d="M306.65,64.812v38.669h8.416c4.067-0.156,6.754-1.475,8.345-3.473c1.591-2.001,2.228-4.572,2.228-7.469
			c0-1.945-0.248-3.526-0.778-4.735c-0.99-2.475-2.263-3.943-3.961-4.731c1.556-1.209,2.652-2.267,3.324-3.529
			c0.707-1.262,0.919-2.627,0.919-4.47c0-3.84-1.096-6.369-3.183-7.999c-2.086-1.63-5.234-2.263-9.3-2.263H306.65L306.65,64.812z"/>
		<polygon fill="#333333" points="336.071,64.812 329.069,103.481 335.682,103.481 336.955,95.595 343.533,95.595 344.806,103.481 
			351.454,103.481 344.417,64.812 		"/>
		<polygon fill="#333333" points="355.874,64.812 355.874,103.481 371.752,103.481 371.752,98.219 362.699,98.219 362.699,64.812 
			355.874,64.812 		"/>
		<polygon fill="#333333" points="375.818,64.812 375.818,103.481 391.696,103.481 391.696,98.219 382.643,98.219 382.643,64.812 
			375.818,64.812 		"/>
		<path fill="#FFFFFF" d="M221.285,70.439c0.569,0,1.899-0.05,3.038,0.583c1.139,0.629,2.023,1.895,2.023,4.576
			c0,2.684-0.884,3.95-2.023,4.579c-1.139,0.633-2.468,0.573-3.038,0.573V70.439L221.285,70.439z"/>
		<path fill="#FFFFFF" d="M313.478,70.439c0.601,0,1.91-0.05,3.041,0.583c1.132,0.629,2.016,1.895,2.016,4.576
			c0,2.684-0.884,3.95-2.016,4.579c-1.132,0.633-2.44,0.573-3.041,0.573V70.439L313.478,70.439z"/>
		<polygon fill="#FFFFFF" points="247.835,76.387 248.214,76.387 248.401,77.387 250.36,89.591 245.685,89.591 247.648,77.387 		"/>
		<polygon fill="#FFFFFF" points="340.071,76.387 340.424,76.387 340.636,77.387 342.581,89.591 337.914,89.591 339.858,77.387 		
			"/>
		<path fill="#FFFFFF" d="M221.285,85.966c0.569,0,1.899-0.11,3.038,0.573c1.139,0.686,2.023,2.21,2.023,5.368
			c0,3.154-0.884,4.682-2.023,5.364c-1.139,0.686-2.468,0.58-3.038,0.58V85.966z"/>
		<path fill="#FFFFFF" d="M313.478,85.966c0.601,0,1.91-0.11,3.041,0.573c1.132,0.686,2.016,2.21,2.016,5.368
			c0,3.154-0.884,4.682-2.016,5.364c-1.132,0.686-2.44,0.58-3.041,0.58V85.966z"/>
	</g>
</g>
<g id="LEAGUE">
	<g>
		<path fill="#333333" d="M356.893,25.339c-1.542,0-2.739,0.354-3.596,0.891c-0.855,0.534-1.415,1.245-1.8,1.958
			c-0.469,0.819-0.728,1.781-0.771,2.815v15.42c-0.043,1.068,0.129,2.028,0.515,2.849c0.342,0.711,0.857,1.391,1.628,1.925
			c0.771,0.57,1.798,0.888,3.297,0.888s2.744-0.642,3.601-1.532l0.555,1.247h2.741V38.765h-6.469v3.239h1.843v4.738
			c0,0.393-0.045,0.713-0.172,0.962c-0.172,0.534-0.558,0.965-1.372,0.965c-0.385,0-0.682-0.108-0.898-0.287
			c-0.429-0.39-0.644-0.893-0.644-1.64V31.003c0-0.357,0.043-0.68,0.172-0.965c0.172-0.462,0.555-0.962,1.369-0.962
			c0.385,0,0.725,0.108,0.941,0.285c0.429,0.429,0.603,0.929,0.603,1.642v4.02h4.625v-4.02c-0.043-1.034-0.302-1.997-0.773-2.815
			c-0.385-0.713-0.986-1.424-1.841-1.958C359.591,25.693,358.435,25.339,356.893,25.339L356.893,25.339z"/>
		<polygon fill="#333333" points="306.574,25.621 306.574,51.801 317.324,51.801 317.324,48.238 311.197,48.238 311.197,25.621 
			306.574,25.621 		"/>
		<polygon fill="#333333" points="320.065,25.621 320.065,51.801 330.642,51.801 330.642,47.846 324.688,47.846 324.688,40.654 
			328.971,40.654 328.971,36.45 324.688,36.45 324.688,29.576 330.642,29.576 330.642,25.621 		"/>
		<polygon fill="#333333" points="337.623,25.621 332.866,51.801 337.365,51.801 338.222,46.462 342.672,46.462 343.532,51.801 
			348.025,51.801 343.275,25.621 		"/>
		<path fill="#333333" d="M367.257,25.621v20.802c0.043,1.068,0.297,2.028,0.769,2.849c0.385,0.711,0.943,1.391,1.8,1.925
			c0.855,0.57,2.054,0.888,3.596,0.888c1.542,0,2.701-0.318,3.558-0.888c0.857-0.534,1.453-1.214,1.839-1.925
			c0.469-0.821,0.728-1.781,0.771-2.849V25.621h-4.625v20.802c0,0.393-0.043,0.713-0.172,0.962c-0.172,0.536-0.558,0.96-1.369,0.96
			c-0.385,0-0.685-0.108-0.898-0.285c-0.429-0.393-0.642-0.888-0.642-1.638V25.621H367.257L367.257,25.621z"/>
		<polygon fill="#333333" points="383.829,25.621 383.829,51.801 394.406,51.801 394.406,47.846 388.454,47.846 388.454,40.654 
			392.737,40.654 392.737,36.45 388.454,36.45 388.454,29.576 394.406,29.576 394.406,25.621 		"/>
		<polygon fill="#FFFFFF" points="340.321,33.457 340.58,33.457 340.707,34.135 342.033,42.397 338.863,42.397 340.192,34.135 		"/>
	</g>
</g>
<g id="MAJOR">
	<g>
		<path fill="#333333" d="M268.272,25.817c-1.579,0-2.805,0.365-3.683,0.915c-0.878,0.547-1.449,1.275-1.844,2.006
			c-0.483,0.839-0.748,1.824-0.79,2.884v15.794c0.042,1.094,0.307,2.077,0.79,2.918c0.395,0.728,0.966,1.425,1.844,1.971
			c0.878,0.584,2.104,0.91,3.683,0.91c1.579,0,2.761-0.326,3.639-0.91c0.878-0.547,1.493-1.243,1.888-1.971
			c0.481-0.841,0.745-1.824,0.79-2.918V31.621c-0.044-1.059-0.309-2.045-0.79-2.884c-0.395-0.731-1.01-1.459-1.888-2.006
			C271.033,26.182,269.851,25.817,268.272,25.817z"/>
		<polygon fill="#333333" points="212.916,26.108 212.916,52.922 217.303,52.922 217.303,34.938 217.566,34.938 217.743,36.069 
			220.765,52.922 220.77,52.922 222.786,52.922 225.813,36.069 225.986,34.938 226.249,34.938 226.249,52.922 230.636,52.922 
			230.636,26.108 224.846,26.108 222.039,38.369 221.819,39.791 221.733,39.791 221.513,38.369 218.706,26.108 		"/>
		<polygon fill="#333333" points="238.575,26.108 233.705,52.922 238.312,52.922 239.188,47.454 243.749,47.454 244.629,52.922 
			249.231,52.922 244.366,26.108 238.575,26.108 		"/>
		<path fill="#333333" d="M253.356,26.108v21.235c0,0.62-0.13,1.057-0.392,1.312c-0.527,0.584-1.231,0.765-2.15,0.657v3.865
			c2.805,0.145,4.649-0.439,5.745-1.422c1.099-0.986,1.533-2.334,1.533-3.793V26.108H253.356L253.356,26.108z"/>
		<path fill="#333333" d="M278.662,26.108v26.814h4.742V41.616h1.268l2.457,11.307h4.737l-3.028-12.989
			c1.8-1.02,2.636-3.428,2.636-6.091c0-5.071-2.413-7.734-8.07-7.734H278.662L278.662,26.108z"/>
		<path fill="#FFFFFF" d="M268.272,29.647c0.395,0,0.743,0.11,0.961,0.292c0.439,0.439,0.613,0.951,0.613,1.682v15.794
			c0,0.402-0.039,0.731-0.172,0.986c-0.177,0.549-0.569,0.983-1.403,0.983c-0.395,0-0.706-0.11-0.924-0.292
			c-0.439-0.402-0.657-0.91-0.657-1.677V31.621c0-0.365,0.047-0.696,0.177-0.988C267.044,30.159,267.438,29.647,268.272,29.647z"/>
		<path fill="#FFFFFF" d="M286.911,33.992c0,1.895-0.566,2.879-1.268,3.389c-0.701,0.512-1.579,0.586-2.236,0.586h-0.005V30.01l0,0
			c0.657,0,1.537,0.039,2.241,0.552"/>
		<polygon fill="#FFFFFF" points="241.341,34.134 241.605,34.134 241.733,34.828 243.094,43.29 239.847,43.29 241.208,34.828 		"/>
	</g>
</g>
</svg>
