<?xml version="1.0" encoding="utf-8"?>
<!-- Generator: Adobe Illustrator 17.0.0, SVG Export Plug-In . SVG Version: 6.00 Build 0)  -->
<!DOCTYPE svg PUBLIC "-//W3C//DTD SVG 1.1//EN" "http://www.w3.org/Graphics/SVG/1.1/DTD/svg11.dtd">
<svg version="1.1" id="Layer_1" xmlns="http://www.w3.org/2000/svg" xmlns:xlink="http://www.w3.org/1999/xlink" x="0px" y="0px"
	 width="417.899px" height="130px" viewBox="0 0 417.899 130" enable-background="new 0 0 417.899 130" xml:space="preserve">
<g id="MLB">
	<g id="mlb_logo">
		<path id="Shape" fill="#FFFFFF" d="M185.339,20.286H92.112c-5.022,0-9.099,6.005-9.099,13.404v61.422c0,7.4,4.077,13.4,9.099,13.4
			h93.227c5.028,0,9.1-6,9.1-13.4V33.69C194.439,26.291,190.367,20.286,185.339,20.286"/>
		<path id="right" fill="#CC0000" d="M145.513,20.28l24.561,40.991l2.248,0.275l1.304,1.884v1.767l1.596,0.289l1.41,1.965
			l0.013,1.685l1.583,0.281c0,0,1.596,1.687,1.596,1.777v3.84c0,0,3.459,3.177,6.558,4.391c2.155,0.842,2.421,4.299,3.645,6.172
			c1.689,2.622,3.938,3.743,3.472,5.244c-1.117,4.023-5.241,10.758-9.086,11.138c0,0-9.538,0.011-15.165,0.011l0.013,6.48h18.956
			c5.481,0,9.95-4.478,9.95-9.944V30.214c0-2.659-1.038-5.152-2.913-7.022c-1.889-1.882-4.377-2.912-7.037-2.912H145.513
			L145.513,20.28z"/>
		<path id="left" fill="#000088" d="M35.434,20.27c-2.66,0-5.153,1.039-7.025,2.912c-1.887,1.88-2.915,4.374-2.915,7.033v68.312
			c0,2.658,1.027,5.159,2.918,7.029c1.873,1.882,4.366,2.913,7.026,2.913h62.045c-1.567-2.595-3.307-5.545-3.838-6.441h-7.403
			c-0.012-18.34,6.255-28.542,13.659-30.518c1.018-0.197,0.545-5.239-0.761-6.738c0,0-3.557,0.094-4.31-0.101
			c-0.938-0.278-0.286-1.205-0.286-1.205l3.465-7.488l-0.462-2.069L84.711,53.92c-0.186,0,10.582-7.398,10.582-7.398
			c0.548-19.46,20.481-20.97,32.548-12.935c7.134,4.773,7.7,14.134,7.145,20.686c-0.093,0.38-1.881,0.102-1.881,0.102
			s-1.205,7.108,1.971,7.108h14.03c5.719-0.193,11.243,3.636,11.243,3.636l1.41-4.866l-30.806-39.981l-0.003-0.003L35.434,20.27
			L35.434,20.27z"/>
		<path id="ball" fill="#FFFFFF" d="M46.033,80.744c-3.763,0.019-6.822,3.069-6.812,6.839c0,3.774,3.049,6.83,6.82,6.83
			c3.773-0.008,6.83-3.066,6.83-6.848C52.871,83.813,49.795,80.744,46.033,80.744"/>
	</g>
	<path id="text" display="none" fill="#333333" d="M239.461,28.399c-1.04,0-1.848,0.241-2.426,0.603
		c-0.578,0.36-0.955,0.84-1.215,1.321c-0.318,0.552-0.493,1.202-0.52,1.9v10.405c0.027,0.72,0.202,1.368,0.52,1.922
		c0.26,0.48,0.636,0.939,1.215,1.299c0.578,0.384,1.386,0.599,2.426,0.599s1.819-0.215,2.397-0.599
		c0.578-0.36,0.984-0.819,1.244-1.299c0.317-0.554,0.491-1.202,0.52-1.922V32.223c-0.029-0.698-0.204-1.347-0.52-1.9
		c-0.26-0.481-0.666-0.961-1.244-1.321C241.28,28.64,240.502,28.399,239.461,28.399z M355.013,28.399
		c-1.473,0.023-2.484,0.577-3.148,1.347c-0.666,0.792-0.924,1.824-0.924,2.785c0,0.481,0.084,0.963,0.258,1.42
		c0.317,0.937,0.84,1.85,1.533,2.738c0.693,0.89,1.355,1.709,1.963,2.43c0.289,0.36,0.551,0.72,0.811,1.058
		c0.462,0.696,0.808,1.37,0.808,1.947c0,1.129-0.347,1.947-1.271,1.947c-0.666,0-1.01-0.386-1.212-0.963
		c-0.233-0.552-0.263-1.299-0.263-2.045l-3.063,0.244c0,1.321,0.147,2.594,0.782,3.555c0.636,0.961,1.761,1.586,3.756,1.586
		c1.704,0,2.774-0.53,3.438-1.347c0.666-0.816,0.897-1.921,0.897-3.098c0-0.961-0.375-1.874-0.924-2.764
		c-0.549-0.888-1.271-1.804-1.993-2.693c-0.607-0.746-1.213-1.443-1.677-2.115c-0.462-0.674-0.782-1.299-0.782-1.9
		c0-1.034,0.26-1.73,1.069-1.754c0.491,0,0.811,0.338,1.013,0.817c0.202,0.504,0.231,1.155,0.231,1.732l3.063-0.239
		c0-0.985-0.173-2.166-0.779-3.127C357.99,29.022,356.891,28.375,355.013,28.399L355.013,28.399z M296.296,28.401
		c-1.04,0-1.848,0.239-2.426,0.601c-0.577,0.36-0.955,0.84-1.215,1.321c-0.317,0.552-0.491,1.202-0.52,1.9v10.405
		c-0.029,0.72,0.087,1.368,0.347,1.922c0.231,0.48,0.578,0.939,1.098,1.299c0.52,0.384,1.213,0.599,2.224,0.599
		s1.851-0.433,2.43-1.034l0.375,0.842h1.85V37.46h-4.365v2.186h1.244v3.197c0,0.265-0.031,0.481-0.116,0.649
		c-0.116,0.36-0.376,0.651-0.926,0.651c-0.26,0-0.46-0.073-0.606-0.194c-0.289-0.263-0.435-0.603-0.435-1.107v-10.62
		c0-0.241,0.029-0.459,0.116-0.651c0.116-0.312,0.375-0.649,0.924-0.649c0.26,0,0.489,0.073,0.635,0.192
		c0.289,0.289,0.407,0.627,0.407,1.108v2.712h3.121v-2.712c-0.029-0.698-0.204-1.347-0.522-1.9c-0.26-0.481-0.666-0.961-1.242-1.321
		C298.117,28.64,297.336,28.401,296.296,28.401L296.296,28.401z M202.994,28.591v17.664h2.89V34.408h0.173l0.117,0.745l1.991,11.103
		h0.003h1.328l1.994-11.103l0.114-0.745h0.173v11.847h2.89V28.591h-3.814l-1.849,8.077l-0.145,0.937h-0.057l-0.145-0.937
		l-1.849-8.077H202.994z M219.897,28.591l-3.208,17.664h3.035l0.577-3.602h3.005l0.58,3.602h3.032l-3.205-17.664L219.897,28.591
		L219.897,28.591z M229.635,28.591V42.58c0,0.409-0.086,0.696-0.258,0.864c-0.347,0.384-0.811,0.504-1.417,0.433v2.546
		c1.848,0.095,3.063-0.289,3.785-0.937c0.724-0.649,1.01-1.538,1.01-2.499V28.591H229.635L229.635,28.591z M246.306,28.591v17.664
		h3.124v-7.449h0.835l1.619,7.449h3.121l-1.995-8.557c1.186-0.672,1.737-2.258,1.737-4.013c0-3.341-1.59-5.095-5.316-5.095h-3.125
		V28.591z M262.344,28.591v17.664h7.253v-2.404h-4.134v-15.26H262.344L262.344,28.591z M271.446,28.591v17.664h7.137v-2.669h-4.018
		v-4.853h2.89v-2.837h-2.89V31.26h4.018v-2.669H271.446z M283.294,28.591l-3.21,17.664h3.035l0.578-3.602h3.003l0.58,3.602h3.032
		l-3.205-17.664C287.107,28.591,283.294,28.591,283.294,28.591z M303.289,28.591v14.036c0.029,0.72,0.2,1.368,0.519,1.922
		c0.26,0.48,0.636,0.939,1.215,1.299c0.577,0.384,1.386,0.599,2.426,0.599s1.822-0.215,2.4-0.599
		c0.578-0.36,0.981-0.819,1.241-1.299c0.317-0.554,0.491-1.202,0.52-1.922V28.591h-3.121v14.036c0,0.265-0.029,0.481-0.116,0.649
		c-0.116,0.362-0.376,0.648-0.924,0.648c-0.26,0-0.462-0.073-0.606-0.192c-0.289-0.265-0.433-0.599-0.433-1.105V28.591H303.289
		L303.289,28.591z M314.471,28.591v17.664h7.137v-2.669h-4.016v-4.853h2.89v-2.837h-2.89V31.26h4.016v-2.669H314.471z
		 M328.95,28.591v17.664h3.843c1.85-0.071,3.092-0.674,3.814-1.586c0.724-0.914,1.013-2.089,1.013-3.412
		c0-0.888-0.115-1.611-0.346-2.163c-0.464-1.131-1.04-1.801-1.821-2.161c0.722-0.552,1.212-1.035,1.53-1.612s0.404-1.2,0.404-2.042
		c0-1.754-0.488-2.909-1.443-3.654c-0.953-0.745-2.401-1.034-4.25-1.034L328.95,28.591L328.95,28.591z M342.379,28.591
		l-3.207,17.664h3.032l0.578-3.602h3.006l0.577,3.602h3.035l-3.208-17.664C346.192,28.591,342.379,28.591,342.379,28.591z
		 M361.631,28.591v17.664h7.143v-2.669h-4.022v-4.853h2.892v-2.837h-2.892V31.26h4.022v-2.669H361.631z M371.068,28.591v17.664
		h3.845c1.858-0.071,3.085-0.674,3.812-1.586c0.727-0.914,1.018-2.089,1.018-3.412c0-0.888-0.113-1.611-0.355-2.163
		c-0.452-1.131-1.034-1.801-1.809-2.161c0.711-0.552,1.212-1.035,1.518-1.612c0.323-0.577,0.42-1.2,0.42-2.042
		c0-1.754-0.501-2.909-1.454-3.654s-2.391-1.034-4.249-1.034L371.068,28.591L371.068,28.591z M384.508,28.591l-3.199,17.664h3.021
		l0.582-3.602h3.005l0.582,3.602h3.037l-3.215-17.664C388.321,28.591,384.508,28.591,384.508,28.591z M393.554,28.591v17.664h7.253
		v-2.404h-4.135v-15.26H393.554L393.554,28.591z M402.665,28.591v17.664h7.253v-2.404h-4.135v-15.26H402.665L402.665,28.591z
		 M239.461,30.922c0.26,0,0.489,0.073,0.633,0.192c0.289,0.289,0.404,0.627,0.404,1.108v10.405c0,0.265-0.026,0.481-0.113,0.649
		c-0.116,0.362-0.375,0.648-0.924,0.648c-0.26,0-0.465-0.073-0.609-0.192c-0.289-0.265-0.433-0.599-0.433-1.105V32.223
		c0-0.241,0.031-0.459,0.116-0.651C238.652,31.26,238.912,30.922,239.461,30.922z M249.428,31.161c0.433,0,1.013,0.026,1.476,0.363
		c0.462,0.336,0.835,1.01,0.835,2.26c0,1.249-0.373,1.896-0.835,2.232c-0.462,0.338-1.04,0.386-1.473,0.386h-0.003L249.428,31.161
		L249.428,31.161z M332.072,31.161c0.26,0,0.867-0.023,1.388,0.267c0.52,0.288,0.924,0.866,0.924,2.09
		c0,1.226-0.404,1.804-0.924,2.092c-0.52,0.289-1.128,0.262-1.388,0.262V31.161L332.072,31.161z M374.187,31.161
		c0.275,0,0.872-0.023,1.389,0.267c0.517,0.288,0.921,0.866,0.921,2.09c0,1.226-0.404,1.804-0.921,2.092
		c-0.517,0.289-1.115,0.262-1.389,0.262V31.161L374.187,31.161z M221.72,33.878h0.174l0.084,0.457l0.897,5.575h-2.139l0.897-5.575
		L221.72,33.878z M285.114,33.878h0.174l0.086,0.457l0.895,5.575h-2.139l0.897-5.575L285.114,33.878z M344.201,33.878h0.173
		l0.086,0.457l0.895,5.575h-2.136l0.897-5.575L344.201,33.878z M386.335,33.878h0.162l0.097,0.457l0.888,5.575h-2.132l0.888-5.575
		L386.335,33.878z M332.072,38.254c0.26,0,0.867-0.05,1.388,0.262c0.52,0.313,0.924,1.01,0.924,2.452
		c0,1.441-0.404,2.139-0.924,2.451c-0.52,0.313-1.128,0.265-1.388,0.265V38.254z M374.187,38.254c0.275,0,0.872-0.05,1.389,0.262
		c0.517,0.313,0.921,1.01,0.921,2.452c0,1.441-0.404,2.139-0.921,2.451c-0.517,0.313-1.115,0.265-1.389,0.265V38.254z"/>
</g>
<g id="BASEBALL">
	<g>
		<path fill="#333333" d="M345.482,26.552v74.224h16.149c7.772-0.299,12.991-2.831,16.026-6.666
			c3.04-3.841,4.255-8.776,4.255-14.337c0-3.733-0.482-6.768-1.453-9.089c-1.948-4.751-4.371-7.569-7.649-9.081
			c3.035-2.321,5.09-4.351,6.428-6.774c1.338-2.422,1.697-5.042,1.697-8.58c0-7.371-2.05-12.225-6.062-15.354
			c-4.004-3.129-10.087-4.344-17.859-4.344L345.482,26.552L345.482,26.552z"/>
		<path fill="#FFFFFF" d="M358.601,37.353c1.092,0,3.645-0.096,5.831,1.119c2.186,1.207,3.883,3.637,3.883,8.784
			c0,5.152-1.697,7.582-3.883,8.789c-2.186,1.215-4.737,1.1-5.831,1.1V37.353L358.601,37.353z"/>
		<path fill="#FFFFFF" d="M358.601,67.157c1.092,0,3.645-0.211,5.831,1.1c2.186,1.317,3.883,4.242,3.883,10.304
			c0,6.054-1.697,8.987-3.883,10.296c-2.186,1.317-4.737,1.113-5.831,1.113V67.157z"/>
	</g>
</g>
<g id="LEAGUE">
	<g>
		<polygon fill="#333333" points="296.332,26.108 296.332,101.22 327.174,101.22 327.174,90.998 309.595,90.998 309.595,26.108 		
			"/>
	</g>
</g>
<g id="MAJOR">
	<g>
		<polygon fill="#333333" points="226.916,26.108 226.916,101.22 239.205,101.22 239.205,50.843 239.942,50.843 240.438,54.011 
			248.903,101.22 248.917,101.22 254.564,101.22 263.044,54.011 263.528,50.843 264.265,50.843 264.265,101.22 276.554,101.22 
			276.554,26.108 260.335,26.108 252.472,60.454 251.855,64.437 251.615,64.437 250.998,60.454 243.135,26.108 		"/>
	</g>
</g>
</svg>
